<svg width="229" height="259" viewBox="0 0 229 259" fill="none" xmlns="http://www.w3.org/2000/svg">
<rect width="229" height="259" transform="matrix(1 0 0 -1 0 259)" fill="#C9BB3F"/>
<line opacity="0.15" y1="39.75" x2="229" y2="39.75" stroke="black" stroke-width="0.5"/>
<line opacity="0.15" y1="212.75" x2="229" y2="212.75" stroke="black" stroke-width="0.5"/>
<path d="M37.2754 180.823H146.94L132.558 212.805L132.241 213.51H133.014H169.182H169.506L169.638 213.214L198.457 148.614L198.771 147.911H198H171.998L111.601 33.0983L111.15 32.242L110.713 33.1048L52.4413 147.911H37.2754H36.7754V148.411V180.323V180.823H37.2754ZM134.537 149.845H88.9237L111.17 101.614L134.537 149.845Z" stroke="black"/>
<rect x="34.4694" y="145.469" width="3.81135" height="3.81135" fill="#C9BB3F" stroke="black" stroke-width="0.938865"/>
<rect opacity="0.2" x="30" y="180.546" width="7.84308" height="7.84308" transform="rotate(-45 30 180.546)" fill="black"/>
<path d="M35.4694 184.061V176.939L40.2176 180.5L35.4694 184.061Z" fill="#C9BB3F" stroke="black" stroke-width="0.938865"/>
<path d="M91.4994 152.427L85.0493 149.407L90.288 146.617L91.4994 152.427Z" fill="#C9BB3F" stroke="black" stroke-width="0.938865"/>
<rect x="109.469" y="99.4694" width="3.81135" height="3.81135" fill="#C9BB3F" stroke="black" stroke-width="0.938865"/>
<rect opacity="0.2" x="106" y="33.5459" width="7.84308" height="7.84308" transform="rotate(-45 106 33.5459)" fill="black"/>
<rect x="109.469" y="31.4694" width="3.81135" height="3.81135" fill="#C9BB3F" stroke="black" stroke-width="0.938865"/>
<rect x="132.469" y="147.469" width="3.81135" height="3.81135" fill="#C9BB3F" stroke="black" stroke-width="0.938865"/>
<rect x="170.469" y="145.469" width="3.81135" height="3.81135" fill="#C9BB3F" stroke="black" stroke-width="0.938865"/>
<rect x="196.469" y="145.469" width="3.81135" height="3.81135" fill="#C9BB3F" stroke="black" stroke-width="0.938865"/>
<rect x="167.469" y="211.469" width="3.81135" height="3.81135" fill="#C9BB3F" stroke="black" stroke-width="0.938865"/>
<rect x="130.469" y="211.469" width="3.81135" height="3.81135" fill="#C9BB3F" stroke="black" stroke-width="0.938865"/>
<rect opacity="0.2" x="142" y="180.546" width="7.84308" height="7.84308" transform="rotate(-45 142 180.546)" fill="black"/>
<rect x="145.469" y="178.469" width="3.81135" height="3.81135" fill="#C9BB3F" stroke="black" stroke-width="0.938865"/>
<rect x="50.4694" y="145.469" width="3.81135" height="3.81135" fill="#C9BB3F" stroke="black" stroke-width="0.938865"/>
</svg>
