<svg width="229" height="259" viewBox="0 0 229 259" fill="none" xmlns="http://www.w3.org/2000/svg">
<g clip-path="url(#clip0_714_5544)">
<rect width="229" height="259" transform="matrix(1 0 0 -1 0 259)" fill="#6F8DB5"/>
<line opacity="0.15" y1="40.7653" x2="229" y2="40.7653" stroke="black" stroke-width="0.469432"/>
<line opacity="0.15" y1="211.765" x2="229" y2="211.765" stroke="black" stroke-width="0.469432"/>
<path d="M35.8358 173.671L35.8401 173.676C46.1567 186.56 60.3287 195.672 78.3278 201.024V212V212.5H78.8278H151.172H151.672V212V201.024C169.671 195.672 183.765 186.56 193.924 173.673C204.312 160.538 209.5 144.891 209.5 126.759C209.5 108.786 204.312 93.3002 193.923 80.3254C183.764 67.4397 169.67 58.3276 151.672 52.9758V42V41.5H151.172H78.8278H78.3278V42V52.9758C60.3287 58.3277 46.1567 67.4396 35.8401 80.3238L35.8377 80.3268C25.6083 93.3019 20.5 108.788 20.5 126.759C20.5 144.889 25.6076 160.535 35.8358 173.671ZM63.4863 163.121C54.5389 153.403 50.057 141.294 50.057 126.759C50.057 112.385 54.5382 100.437 63.4848 90.8805C72.4843 81.4343 84.7952 75.546 100.459 73.2446V180.755C84.796 178.454 72.4857 172.566 63.4863 163.121ZM166.275 90.8787L166.278 90.8818C175.384 100.44 179.943 112.386 179.943 126.759C179.943 141.293 175.383 153.401 166.277 163.12C157.278 172.566 145.046 178.453 129.541 180.755V73.2447C145.204 75.5462 157.434 81.4345 166.275 90.8787Z" stroke="black"/>
</g>
<defs>
<clipPath id="clip0_714_5544">
<rect width="229" height="259" fill="white"/>
</clipPath>
</defs>
</svg>
