<svg width="229" height="259" viewBox="0 0 229 259" fill="none" xmlns="http://www.w3.org/2000/svg">
<rect width="229" height="259" transform="matrix(1 0 0 -1 0 259)" fill="#6F8DB5"/>
<line opacity="0.15" y1="81.75" x2="229" y2="81.75" stroke="black" stroke-width="0.5"/>
<line opacity="0.15" y1="174.75" x2="229" y2="174.75" stroke="black" stroke-width="0.5"/>
<path d="M152.597 81.5H152.097V82V139.338H137.202V82V81.5H136.702H90.2984H89.7984V82V139.338H74.7751V82V81.5H74.2751H28H27.5V82V175V175.5H28H199H199.5V175V82V81.5H199H152.597Z" stroke="black"/>
<rect opacity="0.2" x="21.7188" y="81.2852" width="7.87367" height="7.87367" transform="rotate(-45 21.7188 81.2852)" fill="black"/>
<rect opacity="0.2" x="69" y="81.2852" width="7.87367" height="7.87367" transform="rotate(-45 69 81.2852)" fill="black"/>
<rect opacity="0.2" x="84" y="81.2852" width="7.87367" height="7.87367" transform="rotate(-45 84 81.2852)" fill="black"/>
<rect opacity="0.2" x="132" y="81.2852" width="7.87367" height="7.87367" transform="rotate(-45 132 81.2852)" fill="black"/>
<rect opacity="0.2" x="147" y="81.2852" width="7.87367" height="7.87367" transform="rotate(-45 147 81.2852)" fill="black"/>
<rect opacity="0.2" x="194" y="81.2852" width="7.87367" height="7.87367" transform="rotate(-45 194 81.2852)" fill="black"/>
<rect opacity="0.2" x="194" y="175.567" width="7.87367" height="7.87367" transform="rotate(-45 194 175.567)" fill="black"/>
<rect opacity="0.2" x="22" y="175.567" width="7.87367" height="7.87367" transform="rotate(-45 22 175.567)" fill="black"/>
<rect x="25.4694" y="79.4694" width="3.81135" height="3.81135" fill="#6F8DB5" stroke="black" stroke-width="0.938865"/>
<rect x="72.4694" y="79.4694" width="3.81135" height="3.81135" fill="#6F8DB5" stroke="black" stroke-width="0.938865"/>
<rect x="72.4694" y="136.469" width="3.81135" height="3.81135" fill="#6F8DB5" stroke="black" stroke-width="0.938865"/>
<rect x="87.4694" y="79.4694" width="3.81135" height="3.81135" fill="#6F8DB5" stroke="black" stroke-width="0.938865"/>
<rect x="87.4694" y="136.469" width="3.81135" height="3.81135" fill="#6F8DB5" stroke="black" stroke-width="0.938865"/>
<rect x="135.469" y="79.4694" width="3.81135" height="3.81135" fill="#6F8DB5" stroke="black" stroke-width="0.938865"/>
<rect x="135.469" y="136.469" width="3.81135" height="3.81135" fill="#6F8DB5" stroke="black" stroke-width="0.938865"/>
<rect x="150.469" y="79.4694" width="3.81135" height="3.81135" fill="#6F8DB5" stroke="black" stroke-width="0.938865"/>
<rect x="150.469" y="136.469" width="3.81135" height="3.81135" fill="#6F8DB5" stroke="black" stroke-width="0.938865"/>
<rect x="197.469" y="79.4694" width="3.81135" height="3.81135" fill="#6F8DB5" stroke="black" stroke-width="0.938865"/>
<rect x="197.469" y="173.469" width="3.81135" height="3.81135" fill="#6F8DB5" stroke="black" stroke-width="0.938865"/>
<rect x="25.4694" y="173.469" width="3.81135" height="3.81135" fill="#6F8DB5" stroke="black" stroke-width="0.938865"/>
</svg>
