<svg width="229" height="259" viewBox="0 0 229 259" fill="none" xmlns="http://www.w3.org/2000/svg">
<rect width="229" height="259" transform="matrix(1 0 0 -1 0 259)" fill="#5E4F2B"/>
<line opacity="0.15" y1="40.7653" x2="229" y2="40.7653" stroke="black" stroke-width="0.469432"/>
<line opacity="0.15" y1="213.765" x2="229" y2="213.765" stroke="black" stroke-width="0.469432"/>
<path d="M25.627 41.2275H25.127V41.7275V113.5V114H25.627H59.5781H60.0781V113.5V73H92.5008V98.9265V99.4265H93.0008H109.118L83.0224 125.523L82.6688 125.876L83.0224 126.23L109.118 152.326H93.0008H92.5008V152.826V181.475H60H59.5V181.975V212.5V213H60H163.4H163.9V212.5V181.975V181.475H163.4H130.35V152.826V152.326H129.85H114.283L140.379 126.23L140.732 125.876L140.379 125.523L114.283 99.4265H129.85H130.35V98.9265V72.752H168.399V108.276V108.776H168.899H202.724H203.224V108.276V41.7275V41.2275H202.724H25.627Z" stroke="black"/>
<rect x="58.4694" y="111.969" width="3.81135" height="3.81135" fill="#5E4F2B" stroke="black" stroke-width="0.938865"/>
<path d="M23.4694 117.061V109.939L28.2176 113.5L23.4694 117.061Z" fill="#5E4F2B" stroke="black" stroke-width="0.938865"/>
<rect x="58.4694" y="70.9694" width="3.81135" height="3.81135" fill="#5E4F2B" stroke="black" stroke-width="0.938865"/>
<rect x="90.4694" y="70.9694" width="3.81135" height="3.81135" fill="#5E4F2B" stroke="black" stroke-width="0.938865"/>
<rect x="90.4694" y="96.9694" width="3.81135" height="3.81135" fill="#5E4F2B" stroke="black" stroke-width="0.938865"/>
<rect x="106.469" y="96.9694" width="3.81135" height="3.81135" fill="#5E4F2B" stroke="black" stroke-width="0.938865"/>
<rect x="106.469" y="149.969" width="3.81135" height="3.81135" fill="#5E4F2B" stroke="black" stroke-width="0.938865"/>
<rect x="81.4694" y="123.969" width="3.81135" height="3.81135" fill="#5E4F2B" stroke="black" stroke-width="0.938865"/>
<rect x="139.469" y="123.969" width="3.81135" height="3.81135" fill="#5E4F2B" stroke="black" stroke-width="0.938865"/>
<rect x="112.469" y="96.9694" width="3.81135" height="3.81135" fill="#5E4F2B" stroke="black" stroke-width="0.938865"/>
<rect x="112.469" y="149.969" width="3.81135" height="3.81135" fill="#5E4F2B" stroke="black" stroke-width="0.938865"/>
<rect x="128.469" y="149.969" width="3.81135" height="3.81135" fill="#5E4F2B" stroke="black" stroke-width="0.938865"/>
<rect x="90.4694" y="149.969" width="3.81135" height="3.81135" fill="#5E4F2B" stroke="black" stroke-width="0.938865"/>
<rect x="90.4694" y="178.969" width="3.81135" height="3.81135" fill="#5E4F2B" stroke="black" stroke-width="0.938865"/>
<rect x="57.4694" y="178.969" width="3.81135" height="3.81135" fill="#5E4F2B" stroke="black" stroke-width="0.938865"/>
<rect opacity="0.2" x="53.9551" y="212.546" width="7.84308" height="7.84308" transform="rotate(-45 53.9551 212.546)" fill="black"/>
<rect opacity="0.2" x="158" y="212.546" width="7.84308" height="7.84308" transform="rotate(-45 158 212.546)" fill="black"/>
<rect x="57.4694" y="210.969" width="3.81135" height="3.81135" fill="#5E4F2B" stroke="black" stroke-width="0.938865"/>
<rect x="161.469" y="210.969" width="3.81135" height="3.81135" fill="#5E4F2B" stroke="black" stroke-width="0.938865"/>
<rect x="161.469" y="178.969" width="3.81135" height="3.81135" fill="#5E4F2B" stroke="black" stroke-width="0.938865"/>
<rect x="128.469" y="178.969" width="3.81135" height="3.81135" fill="#5E4F2B" stroke="black" stroke-width="0.938865"/>
<rect x="128.469" y="96.9694" width="3.81135" height="3.81135" fill="#5E4F2B" stroke="black" stroke-width="0.938865"/>
<rect x="128.469" y="70.9694" width="3.81135" height="3.81135" fill="#5E4F2B" stroke="black" stroke-width="0.938865"/>
<rect x="166.469" y="70.9694" width="3.81135" height="3.81135" fill="#5E4F2B" stroke="black" stroke-width="0.938865"/>
<rect x="166.469" y="106.969" width="3.81135" height="3.81135" fill="#5E4F2B" stroke="black" stroke-width="0.938865"/>
<rect x="201.469" y="106.969" width="3.81135" height="3.81135" fill="#5E4F2B" stroke="black" stroke-width="0.938865"/>
<rect opacity="0.2" x="198" y="41.5459" width="7.84308" height="7.84308" transform="rotate(-45 198 41.5459)" fill="black"/>
<rect x="201.469" y="39.9694" width="3.81135" height="3.81135" fill="#5E4F2B" stroke="black" stroke-width="0.938865"/>
<rect opacity="0.2" x="20" y="41.5459" width="7.84308" height="7.84308" transform="rotate(-45 20 41.5459)" fill="black"/>
<rect x="23.4694" y="39.9694" width="3.81135" height="3.81135" fill="#5E4F2B" stroke="black" stroke-width="0.938865"/>
</svg>
