<svg width="229" height="259" viewBox="0 0 229 259" fill="none" xmlns="http://www.w3.org/2000/svg">
<rect width="229" height="259" transform="matrix(1 0 0 -1 0 259)" fill="#6F8DB5"/>
<line opacity="0.15" y1="39.75" x2="229" y2="39.75" stroke="black" stroke-width="0.5"/>
<line opacity="0.15" y1="212.75" x2="229" y2="212.75" stroke="black" stroke-width="0.5"/>
<path d="M79.3146 140.302L79.4476 140.67L79.8369 140.63L134.907 134.861L124.133 177.843C117.534 197.576 107.64 207.206 94.5578 207.206C90.9032 207.206 87.8666 206.379 85.4197 204.755C82.9595 202.953 81.2442 200.67 80.2605 197.898C79.439 195.104 79.27 191.966 79.7698 188.474C80.2651 185.349 81.4921 183.015 83.4156 181.417C85.3744 179.788 87.4713 178.992 89.7183 178.992C92.2432 178.992 94.6818 179.16 97.0343 179.495C99.3795 179.829 101.374 180.328 103.024 180.985L105.308 181.997L105.816 182.222L105.986 181.693L112.609 161.116L112.795 160.538L112.191 160.467C103.519 159.449 96.1971 158.939 90.2277 158.939C86.2823 158.939 82.5039 159.452 78.8943 160.479C75.275 161.34 71.9128 162.803 68.8102 164.865C65.6719 166.952 63.1551 169.902 61.2536 173.695C59.3452 177.502 58.3988 181.899 58.3988 186.875C58.3988 191.671 59.1717 195.971 60.7286 199.766L60.7339 199.779L60.74 199.792C62.4627 203.4 64.6244 206.338 67.2319 208.592L67.2393 208.598L67.247 208.605C69.8368 210.671 72.8521 212.388 76.2883 213.759C79.7119 215.125 82.973 216.067 86.0704 216.582L86.0839 216.584L86.0974 216.586C89.173 216.927 92.3328 217.097 95.5766 217.097H99.1425C109.518 217.097 119.407 211.832 128.805 201.436L128.807 201.433C138.199 190.874 146.039 176.926 152.337 159.61L152.344 159.589L152.35 159.567L183.679 40.9324L183.845 40.3047H183.196H157.216H156.815L156.728 40.6956L137.958 124.682L105.352 127.91L76.949 40.6499L76.8367 40.3047H76.4736H43.8711H43.1586L43.4009 40.9747L79.3146 140.302Z" stroke="black"/>
<rect opacity="0.2" x="38" y="40.0459" width="8.55039" height="8.55039" transform="rotate(-45 38 40.0459)" fill="black"/>
<rect opacity="0.2" x="71" y="40.0459" width="8.55039" height="8.55039" transform="rotate(-45 71 40.0459)" fill="black"/>
<rect opacity="0.2" x="151" y="40.0459" width="8.55039" height="8.55039" transform="rotate(-45 151 40.0459)" fill="black"/>
<rect opacity="0.2" x="178" y="40.0459" width="8.55039" height="8.55039" transform="rotate(-45 178 40.0459)" fill="black"/>
<rect x="42.5" y="38.5" width="3.67532" height="3.67532" fill="#6F8DB5" stroke="black"/>
<rect x="75.2266" y="38.5" width="3.67532" height="3.67532" fill="#6F8DB5" stroke="black"/>
<rect x="103.279" y="125.461" width="3.67532" height="3.67532" fill="#6F8DB5" stroke="black"/>
<rect x="78.0332" y="137.616" width="3.67532" height="3.67532" fill="#6F8DB5" stroke="black"/>
<rect x="80.8379" y="158.188" width="3.67532" height="3.67532" rx="1.83766" fill="#6F8DB5" stroke="black"/>
<rect x="72.4219" y="160.059" width="3.67532" height="3.67532" rx="1.83766" fill="#6F8DB5" stroke="black"/>
<rect x="63.0723" y="166.604" width="3.67532" height="3.67532" rx="1.83766" fill="#6F8DB5" stroke="black"/>
<rect x="57.5" y="176.5" width="3.67532" height="3.67532" rx="1.83766" fill="#6F8DB5" stroke="black"/>
<rect x="57.5" y="193.5" width="3.67532" height="3.67532" rx="1.83766" fill="#6F8DB5" stroke="black"/>
<rect x="61.5" y="202.5" width="3.67532" height="3.67532" rx="1.83766" fill="#6F8DB5" stroke="black"/>
<rect x="69.5" y="209.5" width="3.67532" height="3.67532" rx="1.83766" fill="#6F8DB5" stroke="black"/>
<rect x="79.9023" y="212.422" width="3.67532" height="3.67532" rx="1.83766" fill="#6F8DB5" stroke="black"/>
<rect x="89.2539" y="214.292" width="3.67532" height="3.67532" rx="1.83766" fill="#6F8DB5" stroke="black"/>
<rect x="79.5" y="198.5" width="3.67532" height="3.67532" rx="1.83766" fill="#6F8DB5" stroke="black"/>
<rect x="83.5" y="178.5" width="3.67532" height="3.67532" rx="1.83766" fill="#6F8DB5" stroke="black"/>
<rect x="91.5" y="177.5" width="3.67532" height="3.67532" rx="1.83766" fill="#6F8DB5" stroke="black"/>
<rect x="98.5" y="178.5" width="3.67532" height="3.67532" rx="1.83766" fill="#6F8DB5" stroke="black"/>
<rect x="97.668" y="157.253" width="3.67532" height="3.67532" rx="1.83766" fill="#6F8DB5" stroke="black"/>
<rect x="85.5137" y="204.006" width="3.67532" height="3.67532" rx="1.83766" fill="#6F8DB5" stroke="black"/>
<rect x="136.006" y="122.655" width="3.67532" height="3.67532" fill="#6F8DB5" stroke="black"/>
<rect x="155.643" y="38.5" width="3.67532" height="3.67532" fill="#6F8DB5" stroke="black"/>
<rect x="181.824" y="38.5" width="3.67532" height="3.67532" fill="#6F8DB5" stroke="black"/>
<rect x="150.033" y="157.253" width="3.67532" height="3.67532" fill="#6F8DB5" stroke="black"/>
<rect x="104.215" y="179.694" width="3.67532" height="3.67532" fill="#6F8DB5" stroke="black"/>
<rect x="121.068" y="177.074" width="5.25774" height="5.25774" transform="rotate(-45 121.068 177.074)" fill="#6F8DB5" stroke="black"/>
<rect x="76.3692" y="188.295" width="5.25774" height="5.25774" transform="rotate(-45 76.3692 188.295)" fill="#6F8DB5" stroke="black"/>
<rect x="54.8634" y="186.425" width="5.25774" height="5.25774" transform="rotate(-45 54.8634 186.425)" fill="#6F8DB5" stroke="black"/>
<rect x="86.6544" y="159.308" width="5.25774" height="5.25774" transform="rotate(-45 86.6544 159.308)" fill="#6F8DB5" stroke="black"/>
<rect x="91.3302" y="206.996" width="5.25774" height="5.25774" transform="rotate(-45 91.3302 206.996)" fill="#6F8DB5" stroke="black"/>
<rect x="96.9415" y="217.282" width="5.25774" height="5.25774" transform="rotate(-45 96.9415 217.282)" fill="#6F8DB5" stroke="black"/>
<rect x="108.162" y="160.243" width="5.25774" height="5.25774" transform="rotate(-45 108.162 160.243)" fill="#6F8DB5" stroke="black"/>
<path d="M137.003 139.129L132.704 135.546L136.287 131.247L137.003 139.129Z" fill="#6F8DB5" stroke="black"/>
</svg>
