<svg width="229" height="259" viewBox="0 0 229 259" fill="none" xmlns="http://www.w3.org/2000/svg">
<rect width="229" height="259" transform="matrix(1 0 0 -1 0 259)" fill="#C9BB3F"/>
<line opacity="0.15" y1="58.7653" x2="229" y2="58.7653" stroke="black" stroke-width="0.469432"/>
<line opacity="0.15" y1="192.765" x2="229" y2="192.765" stroke="black" stroke-width="0.469432"/>
<path d="M109.295 58.5H108.795V59V120.331H88.7422C85.8006 85.8316 56.5752 58.5 21 58.5H20.5V59V69.3371V69.8371H21C50.4338 69.8371 74.3914 91.9441 77.3196 120.331H41.0495H40.5495V120.831V131.169V131.669H41.0495H77.3196C74.3914 160.056 50.4338 182.163 21 182.163H20.5V182.663V193V193.5H21H88.4742H88.9742V193V131.669H108.795V193V193.5H109.295H119.705H120.205V193V131.669H140.258C143.199 166.168 172.425 193.5 208 193.5H208.5V193V182.663V182.163H208C178.566 182.163 154.609 160.056 151.68 131.669H187.951H188.451V131.169V120.831V120.331H187.951H151.68C154.609 91.9441 178.566 69.8371 208 69.8371H208.5V69.3371V59V58.5H208H140.526H140.026V59V120.331H120.205V59V58.5H119.705H109.295Z" stroke="black"/>
<rect opacity="0.2" x="15" y="193.047" width="7.81063" height="7.81063" transform="rotate(-45 15 193.047)" fill="black"/>
<rect opacity="0.2" x="83" y="193.047" width="7.81063" height="7.81063" transform="rotate(-45 83 193.047)" fill="black"/>
<rect opacity="0.2" x="103" y="193.047" width="7.81063" height="7.81063" transform="rotate(-45 103 193.047)" fill="black"/>
<rect opacity="0.2" x="115" y="193.047" width="7.81063" height="7.81063" transform="rotate(-45 115 193.047)" fill="black"/>
<rect opacity="0.2" x="203" y="193.047" width="7.81063" height="7.81063" transform="rotate(-45 203 193.047)" fill="black"/>
<rect opacity="0.2" x="135" y="58.5234" width="7.81063" height="7.81063" transform="rotate(-45 135 58.5234)" fill="black"/>
<rect opacity="0.2" x="203" y="58.5234" width="7.81063" height="7.81063" transform="rotate(-45 203 58.5234)" fill="black"/>
<rect x="106.469" y="117.469" width="3.81135" height="3.81135" fill="#C9BB3F" stroke="black" stroke-width="0.938865"/>
<rect x="86.4694" y="117.469" width="3.81135" height="3.81135" fill="#C9BB3F" stroke="black" stroke-width="0.938865"/>
<rect x="74.4694" y="117.469" width="3.81135" height="3.81135" fill="#C9BB3F" stroke="black" stroke-width="0.938865"/>
<rect x="38.4694" y="117.469" width="3.81135" height="3.81135" fill="#C9BB3F" stroke="black" stroke-width="0.938865"/>
<rect x="38.4694" y="129.469" width="3.81135" height="3.81135" fill="#C9BB3F" stroke="black" stroke-width="0.938865"/>
<rect x="74.4694" y="129.469" width="3.81135" height="3.81135" fill="#C9BB3F" stroke="black" stroke-width="0.938865"/>
<rect x="86.4694" y="129.469" width="3.81135" height="3.81135" fill="#C9BB3F" stroke="black" stroke-width="0.938865"/>
<rect x="106.469" y="129.469" width="3.81135" height="3.81135" fill="#C9BB3F" stroke="black" stroke-width="0.938865"/>
<rect x="118.469" y="129.469" width="3.81135" height="3.81135" fill="#C9BB3F" stroke="black" stroke-width="0.938865"/>
<rect x="138.469" y="129.469" width="3.81135" height="3.81135" fill="#C9BB3F" stroke="black" stroke-width="0.938865"/>
<rect x="150.469" y="129.219" width="3.81135" height="3.81135" fill="#C9BB3F" stroke="black" stroke-width="0.938865"/>
<rect x="186.469" y="129.219" width="3.81135" height="3.81135" fill="#C9BB3F" stroke="black" stroke-width="0.938865"/>
<rect x="206.469" y="179.469" width="3.81135" height="3.81135" fill="#C9BB3F" stroke="black" stroke-width="0.938865"/>
<rect x="206.469" y="191.469" width="3.81135" height="3.81135" fill="#C9BB3F" stroke="black" stroke-width="0.938865"/>
<rect x="118.469" y="191.469" width="3.81135" height="3.81135" fill="#C9BB3F" stroke="black" stroke-width="0.938865"/>
<rect x="106.469" y="191.469" width="3.81135" height="3.81135" fill="#C9BB3F" stroke="black" stroke-width="0.938865"/>
<rect x="86.4694" y="191.469" width="3.81135" height="3.81135" fill="#C9BB3F" stroke="black" stroke-width="0.938865"/>
<rect x="18.4694" y="191.469" width="3.81135" height="3.81135" fill="#C9BB3F" stroke="black" stroke-width="0.938865"/>
<rect x="18.4694" y="180.469" width="3.81135" height="3.81135" fill="#C9BB3F" stroke="black" stroke-width="0.938865"/>
<rect x="118.469" y="117.469" width="3.81135" height="3.81135" fill="#C9BB3F" stroke="black" stroke-width="0.938865"/>
<rect x="138.469" y="117.469" width="3.81135" height="3.81135" fill="#C9BB3F" stroke="black" stroke-width="0.938865"/>
<rect x="138.469" y="56.4694" width="3.81135" height="3.81135" fill="#C9BB3F" stroke="black" stroke-width="0.938865"/>
<rect x="206.469" y="56.4694" width="3.81135" height="3.81135" fill="#C9BB3F" stroke="black" stroke-width="0.938865"/>
<rect x="206.469" y="67.4694" width="3.81135" height="3.81135" fill="#C9BB3F" stroke="black" stroke-width="0.938865"/>
<rect opacity="0.2" x="116" y="58.5234" width="7.81063" height="7.81063" transform="rotate(-45 116 58.5234)" fill="black"/>
<path d="M122.531 62.0611V54.9389L117.782 58.5L122.531 62.0611Z" fill="#C9BB3F" stroke="black" stroke-width="0.938865"/>
<rect opacity="0.2" x="103" y="58.5234" width="7.81063" height="7.81063" transform="rotate(-45 103 58.5234)" fill="black"/>
<rect x="106.469" y="56.4694" width="3.81135" height="3.81135" fill="#C9BB3F" stroke="black" stroke-width="0.938865"/>
<rect opacity="0.2" x="15" y="58.0449" width="7.81063" height="7.81063" transform="rotate(-45 15 58.0449)" fill="black"/>
<rect x="18.4694" y="56.4694" width="3.81135" height="3.81135" fill="#C9BB3F" stroke="black" stroke-width="0.938865"/>
<rect x="18.4694" y="67.4694" width="3.81135" height="3.81135" fill="#C9BB3F" stroke="black" stroke-width="0.938865"/>
<rect x="150.469" y="117.469" width="3.81135" height="3.81135" fill="#C9BB3F" stroke="black" stroke-width="0.938865"/>
<rect x="186.469" y="117.469" width="3.81135" height="3.81135" fill="#C9BB3F" stroke="black" stroke-width="0.938865"/>
</svg>
